<?xml version="1.0" standalone="no"?>
<svg version="1.0" xmlns="http://www.w3.org/2000/svg"
 width="656.000000pt" height="656.000000pt" viewBox="0 0 656.000000 656.000000"
 preserveAspectRatio="xMidYMid meet">

<g transform="translate(0.000000,656.000000) scale(0.100000,-0.100000)"
fill="#2e749b" stroke="#ffffff">
<path d="M3163 6544 c-15 -11 -66 -19 -170 -25 -236 -16 -407 -46 -621 -110
-34 -10 -68 -19 -74 -19 -6 0 -30 -8 -52 -18 -68 -31 -151 -62 -164 -62 -14 0
-117 -44 -142 -60 -8 -6 -25 -14 -37 -20 -43 -18 -209 -102 -248 -126 -22 -13
-47 -27 -55 -30 -17 -8 -249 -163 -295 -197 -99 -73 -140 -108 -229 -195 -160
-158 -346 -353 -346 -364 0 -6 -18 -32 -40 -58 -22 -26 -40 -53 -40 -59 0 -6
-4 -11 -9 -11 -9 0 -105 -147 -143 -220 -7 -14 -22 -39 -33 -56 -20 -29 -137
-264 -188 -374 -13 -30 -37 -91 -52 -135 -15 -44 -31 -85 -35 -90 -5 -6 -15
-37 -23 -70 -9 -33 -27 -104 -41 -157 -14 -54 -28 -124 -31 -155 -12 -120 -15
-136 -27 -151 -8 -9 -17 -73 -24 -161 -7 -99 -15 -157 -27 -180 -14 -27 -17
-62 -17 -173 0 -76 4 -138 9 -138 16 0 23 -34 36 -200 8 -97 20 -180 29 -202
9 -21 16 -57 16 -80 0 -24 8 -74 19 -113 10 -38 24 -88 29 -110 17 -66 49
-166 77 -240 14 -38 29 -79 32 -90 11 -39 136 -320 150 -336 7 -8 13 -20 13
-26 0 -6 8 -21 18 -34 10 -13 29 -44 42 -69 70 -133 267 -401 401 -546 132
-143 295 -297 369 -349 30 -21 69 -49 85 -62 17 -13 39 -30 50 -39 11 -8 46
-34 77 -59 31 -25 63 -45 72 -45 8 0 18 -5 22 -11 3 -6 21 -18 38 -26 58 -27
93 -48 110 -65 10 -10 26 -18 35 -18 10 0 24 -7 31 -15 7 -8 17 -15 23 -15 11
0 29 -8 189 -84 53 -25 104 -46 112 -46 9 0 33 -9 53 -20 21 -11 49 -20 63
-20 14 0 33 -7 44 -15 10 -8 38 -17 63 -21 24 -3 60 -15 80 -25 21 -11 49 -19
63 -19 14 0 52 -9 85 -19 73 -24 252 -56 400 -72 61 -6 120 -18 132 -25 29
-18 409 -20 415 -3 2 6 61 17 133 25 72 8 173 24 225 35 52 10 104 19 114 19
10 0 44 8 75 19 31 10 76 24 101 30 150 39 395 122 412 139 7 7 18 12 26 12 8
0 31 9 51 19 30 17 88 43 161 75 8 3 33 17 55 31 22 13 54 31 70 39 17 9 48
27 70 41 22 13 51 29 64 35 13 6 46 27 72 48 27 20 94 71 149 112 111 82 295
249 412 375 120 128 365 454 399 530 5 11 20 38 34 60 13 22 31 54 39 70 9 17
20 37 25 45 5 8 22 42 36 75 14 33 33 74 40 90 46 100 65 145 65 157 1 7 9 31
20 53 11 22 19 48 20 58 0 11 6 31 14 45 26 49 71 212 97 352 6 30 19 96 29
145 11 50 22 137 25 195 8 126 19 193 34 198 7 2 11 51 11 140 0 111 -3 139
-16 153 -12 14 -20 59 -30 186 -7 92 -17 182 -23 198 -6 17 -15 65 -21 108 -5
43 -15 87 -21 98 -5 11 -15 48 -20 82 -6 34 -14 66 -19 72 -5 6 -16 38 -24 71
-8 32 -26 91 -41 129 -14 39 -31 86 -37 105 -5 19 -16 46 -23 60 -7 14 -44 88
-81 165 -62 125 -132 255 -174 320 -57 87 -144 213 -201 290 -91 123 -417 445
-549 542 -119 88 -229 163 -238 163 -3 0 -35 19 -71 43 -36 23 -75 48 -86 55
-23 14 -130 66 -195 94 -25 11 -52 24 -60 29 -32 20 -119 57 -148 64 -16 3
-47 15 -68 26 -21 10 -44 19 -51 19 -7 0 -30 9 -50 20 -21 11 -47 20 -59 20
-12 0 -41 9 -65 20 -24 11 -55 20 -68 20 -14 0 -54 9 -90 19 -103 31 -294 60
-431 67 -136 6 -203 17 -208 33 -6 18 -203 13 -229 -5z m-1429 -2326 c17 -23
20 -55 10 -83 -9 -23 -51 -42 -124 -55 -101 -17 -112 -23 -65 -31 22 -4 64 -8
93 -8 51 -1 112 -22 112 -40 0 -5 -10 -21 -21 -36 -12 -15 -23 -42 -25 -60 -3
-30 -46 -119 -174 -360 -52 -97 -123 -205 -237 -355 -38 -52 -172 -269 -205
-335 -26 -52 -19 -55 131 -55 151 0 147 1 230 -74 41 -38 151 -203 151 -227 0
-16 -28 -18 -377 -23 -208 -3 -412 -9 -453 -13 -58 -7 -81 -5 -101 6 -35 19
-72 102 -73 166 -1 43 6 59 45 120 26 39 85 148 133 244 84 169 183 359 234
451 39 71 85 157 141 265 l52 100 -28 8 c-15 5 -114 10 -220 12 -204 3 -266 9
-282 28 -11 14 2 203 18 264 6 22 19 47 29 56 26 24 164 37 502 46 510 14 487
14 504 -11z m966 7 c10 -12 11 -52 4 -183 -11 -207 -10 -286 4 -687 11 -309
21 -406 74 -747 15 -92 8 -113 -44 -132 -102 -37 -228 -49 -244 -25 -20 32
-46 209 -51 343 l-6 149 -60 -7 c-80 -8 -143 -40 -157 -80 -6 -17 -18 -102
-26 -189 -24 -245 -35 -260 -205 -265 -149 -6 -149 -6 -149 116 0 60 14 189
36 337 19 132 39 276 44 320 18 168 50 357 66 388 10 18 25 37 34 44 24 17 48
70 71 161 22 82 93 243 136 305 43 62 90 84 278 131 161 40 178 42 195 21z
m765 -55 c92 -35 164 -89 222 -165 71 -93 93 -159 93 -273 0 -146 -37 -210
-182 -313 -34 -24 -74 -55 -89 -69 l-28 -25 65 -180 c37 -99 90 -247 119 -330
29 -82 74 -199 99 -260 33 -80 42 -113 34 -122 -7 -9 -46 -13 -138 -13 -142 0
-140 -1 -179 78 -37 74 -201 522 -231 632 -25 91 -29 97 -53 104 -12 3 -23 4
-24 2 -8 -8 -7 -487 1 -662 6 -128 5 -193 -2 -197 -5 -4 -43 -2 -83 4 -41 5
-104 13 -141 16 -37 3 -72 11 -77 17 -11 14 -23 676 -11 676 4 0 32 -20 61
-44 30 -25 55 -43 57 -41 6 6 -26 59 -72 120 -68 89 -60 100 23 35 28 -22 51
-38 51 -34 0 3 -20 29 -43 57 -87 104 -82 64 -68 508 12 404 16 434 57 471 36
31 86 37 284 34 176 -2 201 -5 255 -26z m1405 4 c25 -64 3 -1541 -25 -1672
-19 -93 -33 -102 -152 -102 -94 0 -95 0 -125 32 -47 50 -118 201 -194 413 -8
22 -26 65 -41 95 -14 30 -45 102 -70 160 -24 58 -49 109 -54 115 -8 7 -9 -42
-5 -170 14 -411 18 -634 12 -659 l-6 -26 -144 0 -143 0 -11 43 c-19 72 -24
186 -32 712 -5 281 -14 608 -20 728 -7 120 -9 229 -6 242 7 26 57 47 160 66
53 9 64 8 100 -10 23 -11 58 -27 78 -35 47 -19 60 -40 98 -161 46 -144 170
-476 188 -500 13 -18 14 -14 8 45 -3 36 -9 103 -12 150 l-7 85 40 -39 c37 -36
206 -146 225 -146 17 0 7 21 -25 52 -18 18 -72 71 -119 116 -78 76 -128 145
-115 159 7 7 138 -96 212 -167 60 -58 95 -77 115 -65 8 5 5 15 -6 32 -20 31
-154 160 -241 232 -70 58 -78 75 -78 173 0 112 26 124 258 127 l127 1 10 -26z
m-656 -3 c34 -37 -8 -56 -53 -25 l-24 17 24 13 c31 17 33 17 53 -5z m1510 -46
c61 -14 109 -33 138 -53 52 -36 168 -158 168 -178 0 -7 18 -34 39 -62 45 -57
69 -102 102 -192 21 -60 24 -84 27 -295 4 -262 -3 -329 -55 -485 -87 -263
-222 -410 -415 -451 -167 -36 -391 43 -538 191 -87 86 -137 168 -179 296 -39
118 -51 212 -51 406 0 256 49 443 148 566 59 73 189 189 253 225 127 73 178
77 363 32z m-3544 -22 c0 -5 -33 -73 -74 -153 -116 -229 -105 -216 -99 -119
10 161 69 279 139 279 19 0 34 -3 34 -7z m-604 -1323 c75 -32 144 -108 144
-159 0 -56 -57 -26 -182 96 l-96 94 46 -7 c26 -3 65 -14 88 -24z m158 -36 c19
-7 21 -44 3 -44 -8 0 -24 11 -37 25 -23 25 -23 25 -3 25 12 0 28 -3 37 -6z"/>
<path d="M2321 3518 c-16 -53 -41 -217 -41 -271 l0 -50 44 5 c75 9 77 15 55
159 -11 68 -22 139 -25 157 -3 17 -9 32 -14 32 -5 0 -13 -15 -19 -32z"/>
<path d="M3245 3864 c-17 -13 -20 -29 -23 -113 -5 -125 3 -136 92 -128 34 2
73 10 89 18 32 14 62 59 72 107 6 29 2 37 -32 71 -56 56 -154 79 -198 45z"/>
<path d="M5801 4047 c82 -63 130 -96 124 -87 -11 17 -106 90 -118 90 -5 0 -8
-1 -6 -3z"/>
<path d="M5348 3933 c22 -27 61 -68 86 -93 25 -24 46 -53 46 -63 0 -19 -1 -19
-27 -2 -16 10 -41 31 -57 47 -47 44 -55 33 -10 -14 85 -90 86 -95 40 -273 -23
-89 -26 -119 -26 -277 0 -150 3 -190 21 -255 12 -43 25 -83 30 -89 4 -5 6 -19
3 -30 -4 -16 6 -27 46 -52 93 -58 179 -62 243 -12 14 11 30 20 35 20 6 0 32
-18 57 -40 58 -50 84 -52 30 -2 -69 64 -68 61 -42 143 50 152 60 222 54 363
-9 185 -44 340 -90 398 -8 10 -54 38 -102 63 -49 26 -102 57 -118 71 -15 13
-38 24 -49 24 -22 0 -118 49 -118 60 0 8 -72 60 -84 60 -4 0 10 -21 32 -47z"/>
</g>
</svg>
